<?xml version="1.0" standalone="no"?>
<!DOCTYPE svg PUBLIC "-//W3C//DTD SVG 20010904//EN"
 "http://www.w3.org/TR/2001/REC-SVG-20010904/DTD/svg10.dtd">
<svg version="1.0" xmlns="http://www.w3.org/2000/svg"
 width="800.000000pt" height="800.000000pt" viewBox="0 0 800.000000 800.000000"
 preserveAspectRatio="xMidYMid meet">
<metadata>
Created by potrace 1.14, written by Peter Selinger 2001-2017
</metadata>
<g transform="translate(0.000000,800.000000) scale(0.100000,-0.100000)"
fill="#000000" stroke="none">
<path d="M699 7996 c-2 -2 -22 -7 -44 -10 -38 -6 -92 -20 -125 -33 -8 -4 -17
-7 -20 -7 -10 -3 -115 -56 -135 -68 -123 -79 -237 -208 -295 -333 -12 -27 -26
-57 -30 -65 -4 -8 -16 -47 -26 -85 -18 -68 -19 -162 -19 -3380 0 -1821 3
-3330 8 -3355 31 -186 147 -376 303 -497 94 -72 229 -130 359 -153 42 -7 1084
-9 3360 -7 l3300 2 70 22 c280 84 469 267 561 543 l29 85 0 3320 c0 1826 -3
3338 -7 3360 -12 62 -13 67 -27 110 -72 223 -262 423 -479 502 -151 55 55 52
-3493 53 -1807 0 -3288 -2 -3290 -4z"/>
</g>
</svg>
